<?xml version="1.0" encoding="UTF-8" standalone="no"?>
<?xml-stylesheet href="tologo.css" type="text/css"?><svg
   xmlns:dc="http://purl.org/dc/elements/1.1/"
   xmlns:cc="http://creativecommons.org/ns#"
   xmlns:rdf="http://www.w3.org/1999/02/22-rdf-syntax-ns#"
   xmlns:svg="http://www.w3.org/2000/svg"
   xmlns="http://www.w3.org/2000/svg"
   xmlns:xlink="http://www.w3.org/1999/xlink"
   xmlns:sodipodi="http://sodipodi.sourceforge.net/DTD/sodipodi-0.dtd"
   xmlns:inkscape="http://www.inkscape.org/namespaces/inkscape"
   width="345"
   height="301"
   viewBox="-2e-05 -240.94595 276.00035 240.79989"
   id="svg2"
   version="1.1"
   inkscape:version="0.91 r13725"
   sodipodi:docname="ChocoLogo.svg">
  <metadata
     id="metadata36">
    <rdf:RDF>
      <cc:Work
         rdf:about="">
        <dc:format>image/svg+xml</dc:format>
        <dc:type
           rdf:resource="http://purl.org/dc/dcmitype/StillImage" />
        <dc:title></dc:title>
      </cc:Work>
    </rdf:RDF>
  </metadata>
  <sodipodi:namedview
     pagecolor="#005c94"
     bordercolor="#c6c6c6"
     borderopacity="1"
     objecttolerance="10"
     gridtolerance="10"
     guidetolerance="10"
     inkscape:pageopacity="1"
     inkscape:pageshadow="2"
     inkscape:window-width="1503"
     inkscape:window-height="1041"
     id="namedview34"
     showgrid="false"
     inkscape:zoom="2.2454523"
     inkscape:cx="161.27612"
     inkscape:cy="119.92544"
     inkscape:window-x="320"
     inkscape:window-y="23"
     inkscape:window-maximized="0"
     inkscape:current-layer="svg2"
     fit-margin-top="0"
     fit-margin-left="0"
     fit-margin-right="0"
     fit-margin-bottom="0"
     units="px" />
  <defs
     id="defs4">
    <linearGradient
       id="a">
      <stop
         offset="0"
         stop-color="#0084c8"
         id="stop7" />
      <stop
         offset="1"
         stop-color="#0084c8"
         stop-opacity="0"
         id="stop9" />
    </linearGradient>
    <linearGradient
       id="linearGradient11">
      <stop
         offset="0"
         stop-color="#05608f"
         id="stop13" />
      <stop
         offset="1"
         stop-color="#05608f"
         stop-opacity="0"
         id="stop15" />
    </linearGradient>
    <radialGradient
       xlink:href="#a"
       id="b"
       cx="120.394"
       cy="-52.394001"
       fx="120.394"
       fy="-52.394001"
       r="120.236"
       gradientTransform="matrix(2.596,0.773,-0.124,0.416,-198.677,-123.63)"
       gradientUnits="userSpaceOnUse" />
    <radialGradient
       inkscape:collect="always"
       xlink:href="#a"
       id="radialGradient4174"
       cx="120.3925"
       cy="-188.552"
       fx="120.3925"
       fy="-188.552"
       r="120.2355"
       gradientTransform="matrix(0.98690459,0,0,0.43396501,0.8837746,-106.87288)"
       gradientUnits="userSpaceOnUse" />
  </defs>
  <path
     d="m 1.0387186,-240.87585 0,104.356 c 1.6797117,-3.715 3.806491,-7.451 6.3438227,-11.146 2.5383186,-3.695 5.4822547,-7.357 8.7844387,-10.938 6.602391,-7.163 14.631847,-14.015 23.706434,-20.166 9.075575,-6.152 19.195295,-11.595 29.97328,-15.993 10.777984,-4.398 22.219169,-7.742 33.928786,-9.642 14.28052,-2.319 28.13764,-3.086 41.32565,-2.696 13.18702,0.39 25.70096,1.949 37.26749,4.303 11.56751,2.354 22.19746,5.499 31.61746,9.072 4.7105,1.787 9.10321,3.673 13.17617,5.625 4.07295,1.952 7.82615,3.964 11.1984,5.988 l 0,-58.762 -237.3219314,0 z"
     id="path20"
     style="opacity:0.54900004;fill:url(#radialGradient4174);fill-opacity:1;stroke:none;stroke-width:0.4pt"
     inkscape:connector-curvature="0" />
  <path
     d="m 37.88498,-56.413854 c -20.062,0 -26.522,-13.346 -26.522,-27.627 0,-18.190996 9.521,-30.941996 28.732,-30.941996 4.081,0 8.416,0.509 12.156,1.53 l -1.19,10.03 c -3.74,-1.104 -7.651,-1.699 -11.561,-1.699 -10.711,0 -15.981,8.074996 -15.981,19.210996 0,12.496 5.185,19.467 16.746,19.467 3.485,0 8.161,-1.021 11.136,-2.38 l 1.275,9.86 c -4.25,1.53 -9.436,2.55 -14.791,2.55"
     id="path22"
     inkscape:connector-curvature="0"
     style="fill:#ffffff;stroke:none;stroke-width:0.4pt" />
  <path
     d="m 95.58698,-57.178854 0,-24.907 -24.312,0 0,24.907 -11.051,0 0,-57.379996 11.051,0 0,22.951996 24.312,0 0,-22.951996 11.051,0 0,57.379996 -11.051,0 z"
     id="path24"
     inkscape:connector-curvature="0"
     style="fill:#ffffff;stroke:none;stroke-width:0.4pt" />
  <path
     d="m 139.95498,-105.54785 c -7.904,0 -15.215,6.290996 -15.215,19.211996 0,12.156 4.76,20.061 15.045,20.061 7.481,0 15.473,-5.78 15.473,-19.551 0,-12.751 -5.442,-19.721996 -15.303,-19.721996 m -0.934,49.304996 c -17.512,0 -26.097,-11.137 -26.097,-28.903 0,-18.956996 12.666,-30.346996 28.052,-30.346996 15.301,0 26.096,9.18 26.096,28.816996 0,18.956 -12.494,30.433 -28.051,30.433"
     id="path26"
     inkscape:connector-curvature="0"
     style="fill:#ffffff;stroke:none;stroke-width:0.4pt" />
  <path
     d="m 197.32398,-56.413854 c -20.063,0 -26.521,-13.346 -26.521,-27.627 0,-18.190996 9.519,-30.941996 28.732,-30.941996 4.08,0 8.414,0.509 12.154,1.53 l -1.189,10.03 c -3.74,-1.104 -7.651,-1.699 -11.561,-1.699 -10.711,0 -15.982,8.074996 -15.982,19.210996 0,12.496 5.185,19.467 16.748,19.467 3.484,0 8.16,-1.021 11.135,-2.38 l 1.275,9.86 c -4.25,1.53 -9.436,2.55 -14.791,2.55"
     id="path28"
     inkscape:connector-curvature="0"
     style="fill:#ffffff;stroke:none;stroke-width:0.4pt" />
  <path
     d="m 124.65298,-170.91485 c -1.109,-1.615 -0.108,-4.229 2.234,-5.839 2.345,-1.609 5.143,-1.603 6.253,0.014 1.11,1.616 0.111,4.23 -2.234,5.839 -2.343,1.608 -5.143,1.603 -6.253,-0.014 m 13.158,32.629 c 0,-2.574 -2.011,-3.005 -3.088,-3.005 -2.743,0 -2.928,3.382 -0.994,3.382 1.346,0 2.289,-0.757 1.835,-1.914 1.144,0.939 0.922,3.345 -2.155,3.226 -3.535,-0.133 -3.345,-5.701 1.036,-5.838 2.985,-0.093 5.409,1.446 5.409,4.151 0,4.385 -6.202,6.948 -11.659,4.15 3.917,1.679 9.616,-0.343 9.616,-4.152 m -25.752,5.229 c 0,2.741 -2.184,4.245 -4.842,4.245 -2.659,0 -5.566,-2.078 -4.237,-5.733 -0.793,3.329 2.189,4.375 3.851,4.375 2.154,0 3.459,-1.467 3.459,-3.046 0,-1.578 -0.866,-2.056 -1.807,-2.056 -1.38,0 -2.301,1.421 -1.432,1.973 -1.662,0 -0.74,-2.796 1.495,-2.99 1.911,-0.167 3.513,0.989 3.513,3.232 m 18.532,-29.022 c 3.993,-1.515 6.978,0.076 18.306,-3.441 10.26,-3.186 23.505,-16.388 13.349,-25.6 -8.313,-7.542 -25.134,-5.379 -34.54,0.877 -3.462,2.301 -6.039,5.348 -8.13,8.375 0.573,0.095 1.079,0.331 1.44,0.748 1.101,1.272 0.496,3.599 -1.349,5.194 -1.494,1.292 -3.334,1.692 -4.569,1.129 -3.541,5.07 -8.05,7.205 -11.381,7.968 3.196,-1.356 6.849,-4.587 8.419,-7.728 -9.065,3.291 -12.038,-4.939 -5.336,-6.191 -3.23,0.852 -3.031,5.052 1.224,5.052 4.89,0 6.013,-8.332 -1.224,-8.332 -4.185,0 -6.73,2.036 -8.482,4.637 7.945,5.156 3.967,12.185 -1.462,12.185 -9.725,0 -4.448,-11.46 0.151,-7.087 -3.844,-2.413 -6.257,4.976 -0.075,4.976 4.9,0 5.282,-6.279 0.339,-8.445 -3.958,-1.733 -9.235,-1.356 -12.327,2.413 -2.91,3.55 -2.344,7.75 1.561,10.305 4.775,3.124 2.542,8.015 -0.039,9.585 -2.967,1.804 -6.732,0.872 -6.732,-1.502 0,-0.83 0.603,-2.186 1.733,-2.186 -1.244,0.3 -1.428,2.855 1.266,2.855 1.771,0 3.942,-0.862 3.942,-3.368 0,-1.662 -0.944,-4.231 -5.914,-4.231 -4.882,0 -10.037,3.99 -10.037,10.058 0,6.069 5.804,8.462 12.666,7.747 5.428,-0.565 7.796,-4.334 12.892,-1.583 5.655,3.054 4.547,9.983 2.771,13.627 -2.205,4.523 -1.212,12.422 7.973,11.648 7.499,-0.63 9.029,-5.816 8.82,-9.216 -0.227,-3.732 -2.337,-5.523 -4.9,-6.352 3.77,-1.056 8.248,0.759 10.329,5.579 1.433,3.318 4.825,6.031 10.254,6.031 8.293,0 12.649,-5.012 12.062,-11.158 -0.227,-2.375 -1.733,-5.881 -5.276,-6.408 1.96,-2.488 5.051,-3.469 11.459,-2.111 5.571,1.179 10.405,-3.091 10.405,-7.163 0,-6.86 -6.258,-8.143 -8.971,-8.143 -3.168,0 -6.141,1.656 -6.141,4.673 0,2.563 2.029,3.622 4.33,3.622 2.64,0 4.278,-0.985 4.278,-2.607 0,-2.639 -3.826,-3.13 -5.187,-1.421 1.276,-2.782 6.639,-1.942 6.639,1.767 0,2.03 -1.51,3.919 -5.956,3.919 -5.293,0 -7.917,-4.75 -6.184,-8.294 -1.506,0.377 -3.014,1.509 -4.549,2.138 -8.826,3.616 -11.148,-3.29 -7.847,-4.541"
     id="path30"
     inkscape:connector-curvature="0"
     style="fill:#ffffff;stroke:none;stroke-width:0.4pt" />
  <path
     d="m 240.74717,-105.92574 c -8.05814,0 -15.50984,6.412063 -15.50984,19.581717 0,12.389932 4.85364,20.447057 15.33657,20.447057 7.62497,0 15.76873,-5.891231 15.76873,-19.927243 0,-12.996382 -5.54469,-20.101531 -15.59546,-20.101531"
     id="path32"
     inkscape:connector-curvature="0"
     style="fill:#dc0000;stroke:none;stroke-width:0.4pt" />
  <path
     style="fill:#ffffff;stroke:none;stroke-width:0.4pt"
     inkscape:connector-curvature="0"
     id="path4344"
     d="m 240.73818,-105.69227 c -7.94077,0 -15.28579,6.320259 -15.28579,19.301375 0,12.212556 4.78215,20.154334 15.115,20.154334 7.5158,0 15.54499,-5.806892 15.54499,-19.641962 0,-12.810324 -5.46732,-19.813747 -15.3742,-19.813747 m -0.93835,49.534383 c -17.59347,0 -26.21841,-11.188815 -26.21841,-29.037472 0,-19.045191 12.72493,-30.488181 28.18251,-30.488181 15.37219,0 26.21741,9.22271 26.21741,28.951063 0,19.044193 -12.55213,30.57459 -28.18151,30.57459" />
</svg>
