<?xml version="1.0" encoding="UTF-8" standalone="no"?>
<svg xmlns="http://www.w3.org/2000/svg" width="160" height="18">
    <rect fill="#024f7d" width="160" height="18" rx="3"/>
    <path fill="#dc0303" d="m 145.27853,8.9181938 a 3.0576172,3.6038911 0 0 1 -3.0485,3.6038752 3.0576172,3.6038911 0 0 1 -3.06668,-3.5824015 3.0576172,3.6038911 0 0 1 3.03024,-3.6252209 3.0576172,3.6038911 0 0 1 3.08473,3.5608006"/>
    <g>
        <g transform="matrix(0.17445214,0,0,0.17445214,2.2777001,0.41127776)" fill="#ffffff">
            <path fill="#ffffff" d="m 67.160156,34.554688 c -1.378906,-2.011719 -0.132812,-5.265626 2.78125,-7.269532 2.921875,-2.003906 6.40625,-1.996094 7.789063,0.01563 1.382812,2.011719 0.136719,5.269531 -2.78125,7.273438 -2.917969,2 -6.40625,1.996093 -7.789063,-0.01953 m 16.386719,40.636718 c 0,-3.207031 -2.503906,-3.742187 -3.84375,-3.742187 -3.417969,0 -3.648437,4.210937 -1.238281,4.210937 1.675781,0 2.851562,-0.941406 2.285156,-2.382812 1.421875,1.167968 1.148438,4.164062 -2.683594,4.015625 -4.402344,-0.164063 -4.167968,-7.097657 1.289063,-7.269531 3.71875,-0.117188 6.734375,1.800781 6.734375,5.167968 0,5.460938 -7.722656,8.652344 -14.519532,5.167969 4.878907,2.09375 11.976563,-0.425781 11.976563,-5.167969 m -32.070313,6.511719 c 0,3.414063 -2.71875,5.285156 -6.027343,5.285156 -3.3125,0 -6.933594,-2.585937 -5.277344,-7.140625 -0.988281,4.148438 2.726563,5.449219 4.792969,5.449219 2.683594,0 4.308594,-1.828125 4.308594,-3.792969 0,-1.964844 -1.078126,-2.558594 -2.25,-2.558594 -1.71875,0 -2.863282,1.769532 -1.78125,2.457032 -2.070313,0 -0.921876,-3.484375 1.859374,-3.726563 2.378907,-0.207031 4.375,1.234375 4.375,4.027344 M 74.554688,45.558594 c 4.972656,-1.886719 8.691406,0.09766 22.796874,-4.285156 C 110.12891,37.308594 126.625,20.867188 113.97656,9.394531 103.625,0 82.675781,2.695312 70.964844,10.484375 c -4.3125,2.867187 -7.523438,6.660156 -10.125,10.429687 0.710937,0.121094 1.34375,0.414063 1.792968,0.933594 1.371094,1.582032 0.617188,4.480469 -1.679687,6.46875 -1.863281,1.609375 -4.152344,2.105469 -5.691406,1.40625 -4.410157,6.3125 -10.023438,8.972656 -14.171875,9.921875 3.980468,-1.6875 8.527344,-5.710937 10.484375,-9.625 -11.289063,4.097657 -14.992188,-6.148437 -6.644531,-7.710937 -4.023438,1.0625 -3.777344,6.292968 1.523437,6.292968 6.089844,0 7.488281,-10.375 -1.523437,-10.375 -5.214844,0 -8.382813,2.535157 -10.566407,5.773438 9.894531,6.421875 4.941407,15.175781 -1.820312,15.175781 -12.109375,0 -5.539063,-14.273437 0.1875,-8.828125 -4.785157,-3.003906 -7.789063,6.199219 -0.08984,6.199219 6.101563,0 6.578125,-7.820313 0.421875,-10.519531 -4.929688,-2.15625 -11.503906,-1.6875 -15.351562,3.007812 -3.625,4.417969 -2.921876,9.648438 1.941406,12.832032 5.949218,3.890624 3.167968,9.980468 -0.04687,11.9375 -3.695313,2.246093 -8.382813,1.085937 -8.382813,-1.871094 0,-1.035156 0.75,-2.722656 2.15625,-2.722656 -1.546875,0.375 -1.777344,3.554687 1.578125,3.554687 2.203125,0 4.910157,-1.074219 4.910157,-4.195313 0,-2.066406 -1.175782,-5.265624 -7.367188,-5.265624 -6.078125,0 -12.5,4.96875 -12.5,12.523437 0,7.558594 7.230469,10.539063 15.773438,9.648437 6.761718,-0.703124 9.710937,-5.398437 16.054687,-1.972656 7.042969,3.804688 5.664063,12.433594 3.453125,16.972656 -2.746094,5.632813 -1.511719,15.46875 9.929688,14.503907 C 54.546875,94.195312 56.453125,87.738281 56.195312,83.503906 55.910156,78.855469 53.28125,76.625 50.089844,75.59375 c 4.695312,-1.316406 10.273437,0.945312 12.863281,6.949219 1.785156,4.128906 6.011719,7.507812 12.769531,7.507812 10.328125,0 15.753906,-6.242187 15.023438,-13.894531 -0.285156,-2.957031 -2.160156,-7.324219 -6.570313,-7.980469 2.441407,-3.097656 6.289063,-4.320312 14.269531,-2.628906 6.937498,1.46875 12.957028,-3.847656 12.957028,-8.917969 0,-8.546875 -7.79296,-10.144531 -11.17187,-10.144531 -3.945314,0 -7.648439,2.0625 -7.648439,5.820313 0,3.191406 2.527344,4.511718 5.394531,4.511718 3.289068,0 5.328128,-1.226562 5.328128,-3.246094 0,-3.285156 -4.765628,-3.898437 -6.46094,-1.769531 1.589844,-3.464843 8.26953,-2.417969 8.26953,2.199219 0,2.527344 -1.88281,4.882812 -7.417968,4.882812 -6.59375,0 -9.859374,-5.917968 -7.703124,-10.332031 -1.875,0.472657 -3.753907,1.878907 -5.664063,2.664063 -10.992187,4.503906 -13.882813,-4.097656 -9.773437,-5.65625"/>
        </g>
        <text fill="#fff" text-anchor="right" font-family="DejaVu Sans,Verdana,Geneva,sans-serif" font-size="11" x="27" y="13" id="text4240">Satisfied with CHOCO3</text>
    </g>
</svg>
