<?xml-stylesheet href="tologo.css" type="text/css"?><svg xmlns="http://www.w3.org/2000/svg" width="118.955" height="91.971" viewBox="70.7235 -119.47174 95.164392 73.576807"><path d="M124.653-94.469c-1.109-1.615-.108-4.229 2.234-5.839 2.345-1.609 5.143-1.603 6.253.014 1.11 1.616.111 4.23-2.234 5.839-2.343 1.608-5.143 1.603-6.253-.014m13.158 32.629c0-2.574-2.011-3.005-3.088-3.005-2.743 0-2.928 3.382-.994 3.382 1.346 0 2.289-.757 1.835-1.914 1.144.939.922 3.345-2.155 3.226-3.535-.133-3.345-5.701 1.036-5.838 2.985-.093 5.409 1.446 5.409 4.151 0 4.385-6.202 6.948-11.659 4.15 3.917 1.679 9.616-.343 9.616-4.152m-25.752 5.229c0 2.741-2.184 4.245-4.842 4.245-2.659 0-5.566-2.078-4.237-5.733-.793 3.329 2.189 4.375 3.851 4.375 2.154 0 3.459-1.467 3.459-3.046 0-1.578-.866-2.056-1.807-2.056-1.38 0-2.301 1.421-1.432 1.973-1.662 0-.74-2.796 1.495-2.99 1.911-.167 3.513.989 3.513 3.232m18.532-29.022c3.993-1.515 6.978.076 18.306-3.441 10.26-3.186 23.505-16.388 13.349-25.6-8.313-7.542-25.134-5.379-34.54.877-3.462 2.301-6.039 5.348-8.13 8.375.573.095 1.079.331 1.44.748 1.101 1.272.496 3.599-1.349 5.194-1.494 1.292-3.334 1.692-4.569 1.129-3.541 5.07-8.05 7.205-11.381 7.968 3.196-1.356 6.849-4.587 8.419-7.728-9.065 3.291-12.038-4.939-5.336-6.191-3.23.852-3.031 5.052 1.224 5.052 4.89 0 6.013-8.332-1.224-8.332-4.185 0-6.73 2.036-8.482 4.637 7.945 5.156 3.967 12.185-1.462 12.185-9.725 0-4.448-11.46.151-7.087-3.844-2.413-6.257 4.976-.075 4.976 4.9 0 5.282-6.279.339-8.445-3.958-1.733-9.235-1.356-12.327 2.413-2.91 3.55-2.344 7.75 1.561 10.305 4.775 3.124 2.542 8.015-.039 9.585-2.967 1.804-6.732.872-6.732-1.502 0-.83.603-2.186 1.733-2.186-1.244.3-1.428 2.855 1.266 2.855 1.771 0 3.942-.862 3.942-3.368 0-1.662-.944-4.231-5.914-4.231-4.882 0-10.037 3.99-10.037 10.058 0 6.069 5.804 8.462 12.666 7.747 5.428-.565 7.796-4.334 12.892-1.583 5.655 3.054 4.547 9.983 2.771 13.627-2.205 4.523-1.212 12.422 7.973 11.648 7.499-.63 9.029-5.816 8.82-9.216-.227-3.732-2.337-5.523-4.9-6.352 3.77-1.056 8.248.759 10.329 5.579 1.433 3.318 4.825 6.031 10.254 6.031 8.293 0 12.649-5.012 12.062-11.158-.227-2.375-1.733-5.881-5.276-6.408 1.96-2.488 5.051-3.469 11.459-2.111 5.571 1.179 10.405-3.091 10.405-7.163 0-6.86-6.258-8.143-8.971-8.143-3.168 0-6.141 1.656-6.141 4.673 0 2.563 2.029 3.622 4.33 3.622 2.64 0 4.278-.985 4.278-2.607 0-2.639-3.826-3.13-5.187-1.421 1.276-2.782 6.639-1.942 6.639 1.767 0 2.03-1.51 3.919-5.956 3.919-5.293 0-7.917-4.75-6.184-8.294-1.506.377-3.014 1.509-4.549 2.138-8.826 3.616-11.148-3.29-7.847-4.541" stroke="none" fill="#005c94"/></svg>